<svg xmlns="http://www.w3.org/2000/svg" viewBox="0 0 89.64 89.64"><defs><style>.cls-1,.cls-2{fill:none;}.cls-1{stroke:#79797a;stroke-linecap:round;stroke-linejoin:round;stroke-width:5px;}</style></defs><g id="Layer_2" data-name="Layer 2"><g id="Layer_1-2" data-name="Layer 1"><path class="cls-1" d="M60.72,7.26H35.59a6.6,6.6,0,0,0-6.6,6.6V56.45A6.6,6.6,0,0,0,35.59,63h31.9a6.59,6.59,0,0,0,6.59-6.59V20.63Z"/><path class="cls-1" d="M35.59,63A6.6,6.6,0,0,1,29,56.45V26.6H16.07a6.59,6.59,0,0,0-6.59,6.59v42.6a6.59,6.59,0,0,0,6.59,6.59H48a6.59,6.59,0,0,0,6.6-6.59V63Z"/><polygon class="cls-1" points="74.08 20.63 60.72 20.63 60.72 7.26 74.08 20.63"/><rect class="cls-2" width="89.64" height="89.64"/></g></g></svg>